# xmcd CD database file
#
# Track frame offsets:
#	150
#	12212
#	25913
#	37980
#	49525
#	61846
#	74443
#	85727
#	101880
#	116608
#	130343
#	145594
#	159697
#	173815
#	187326
#	201053
#	214828
#	230258
#	245851
#	260301
#	272904
#	284507
#	298694
#	310774
#
# Disc length: 4334 seconds
#
# Revision: 0
# Processed by: cddbd v1.5.2PL0 Copyright (c) Steve Scherf et al.
# Submitted via: CDex 1.51
#
DISCID=6810ec18
DTITLE=Louis Armstrong - The Essence of Louis Armstrong
DYEAR=2006
DGENRE=Jazz
TTITLE0=St. Louis Blues
TTITLE1=Potato Head Blues
TTITLE2=Dippermouth Blues
TTITLE3=Everybody Loves My Baby
TTITLE4=Yes! I'm In The Barrel
TTITLE5=Sugar Foot Stomp
TTITLE6=Muskrat Rumble
TTITLE7=Keyhole Blues
TTITLE8=Wild Man Blues
TTITLE9=Alligator Crawl
TTITLE10=Ain't Misbehavin'
TTITLE11=I'm A Ding Dong Daddy
TTITLE12=You Rascal You
TTITLE13=Between The Devil And The Deep Blue See
TTITLE14=I Got Rhythym
TTITLE15=Lazy River
TTITLE16=Rockin' Chair
TTITLE17=Stardust
TTITLE18=That's My Home
TTITLE19=Swing That Music
TTITLE20=Mahogany Hall Stomp
TTITLE21=On A Coconut Island
TTITLE22=When The Saints Go Marching In
TTITLE23=West End Blues
EXTD=YEAR: 2006
EXTT0=
EXTT1=
EXTT2=
EXTT3=
EXTT4=
EXTT5=
EXTT6=
EXTT7=
EXTT8=
EXTT9=
EXTT10=
EXTT11=
EXTT12=
EXTT13=
EXTT14=
EXTT15=
EXTT16=
EXTT17=
EXTT18=
EXTT19=
EXTT20=
EXTT21=
EXTT22=
EXTT23=
PLAYORDER=
